<svg xmlns="http://www.w3.org/2000/svg" xmlns:xlink="http://www.w3.org/1999/xlink" width="1100" zoomAndPan="magnify" viewBox="0 0 824.88 183.750001" height="245" preserveAspectRatio="xMidYMid meet" version="1.0"><defs><g/><clipPath id="d893df7a1e"><path d="M 7.644531 24 L 84 24 L 84 90 L 7.644531 90 Z M 7.644531 24 " clip-rule="nonzero"/></clipPath><clipPath id="697224bd67"><path d="M 95 105 L 157 105 L 157 181.738281 L 95 181.738281 Z M 95 105 " clip-rule="nonzero"/></clipPath></defs><path fill="#8669fb" d="M 141.933594 17.882812 C 139.667969 15.761719 136.082031 15.933594 133.8125 18.046875 L 105.671875 44.222656 L 91.378906 8.546875 C 90.226562 5.667969 87.054688 3.980469 84.101562 4.9375 C 81.238281 5.863281 79.589844 8.769531 80.179688 11.648438 L 93.164062 75.152344 C 94.195312 80.203125 100.710938 81.664062 103.800781 77.53125 L 142.621094 25.625 C 144.382812 23.269531 144.128906 19.941406 141.933594 17.882812 " fill-opacity="1" fill-rule="nonzero"/><path fill="#8669fb" d="M 122.753906 15.066406 C 121.511719 20.617188 116.003906 24.109375 110.453125 22.863281 C 104.902344 21.625 101.410156 16.117188 102.652344 10.566406 C 103.894531 5.015625 109.402344 1.523438 114.953125 2.765625 C 120.503906 4.007812 123.996094 9.515625 122.753906 15.066406 " fill-opacity="1" fill-rule="nonzero"/><g clip-path="url(#d893df7a1e)"><path fill="#03ccac" d="M 37.84375 24.9375 C 35.128906 26.433594 34.183594 29.898438 35.492188 32.710938 L 51.691406 67.5625 L 13.347656 70.132812 C 10.253906 70.339844 7.667969 72.832031 7.664062 75.933594 C 7.660156 78.945312 9.914062 81.410156 12.832031 81.742188 L 77.242188 89.015625 C 82.367188 89.597656 85.769531 83.847656 82.792969 79.632812 L 45.421875 26.671875 C 43.726562 24.273438 40.480469 23.484375 37.84375 24.9375 " fill-opacity="1" fill-rule="nonzero"/></g><path fill="#03ccac" d="M 29.238281 42.308594 C 34.132812 45.203125 35.753906 51.519531 32.859375 56.414062 C 29.960938 61.3125 23.644531 62.929688 18.75 60.03125 C 13.855469 57.136719 12.234375 50.820312 15.132812 45.925781 C 18.027344 41.027344 24.347656 39.410156 29.238281 42.308594 " fill-opacity="1" fill-rule="nonzero"/><path fill="#4b45ad" d="M 12.390625 126.109375 C 12.972656 129.15625 15.980469 131.125 19.058594 130.75 L 57.210938 126.113281 L 47.804688 163.375 C 47.042969 166.382812 48.617188 169.613281 51.566406 170.574219 C 54.429688 171.507812 57.46875 170.128906 58.6875 167.453125 L 85.507812 108.441406 C 87.644531 103.746094 83.226562 98.738281 78.300781 100.261719 L 16.382812 119.441406 C 13.578125 120.308594 11.824219 123.152344 12.390625 126.109375 " fill-opacity="1" fill-rule="nonzero"/><path fill="#4b45ad" d="M 26.25 139.660156 C 30.519531 135.902344 37.027344 136.3125 40.789062 140.578125 C 44.546875 144.847656 44.136719 151.355469 39.867188 155.117188 C 35.601562 158.875 29.09375 158.464844 25.332031 154.195312 C 21.570312 149.929688 21.984375 143.421875 26.25 139.660156 " fill-opacity="1" fill-rule="nonzero"/><g clip-path="url(#697224bd67)"><path fill="#fc486b" d="M 100.746094 181.582031 C 103.824219 181.96875 106.625 179.71875 107.21875 176.675781 L 114.597656 138.960938 L 147.128906 159.417969 C 149.753906 161.070312 153.3125 160.570312 155.140625 158.0625 C 156.914062 155.632812 156.539062 152.3125 154.371094 150.328125 L 106.539062 106.582031 C 102.734375 103.105469 96.601562 105.753906 96.53125 110.910156 L 95.636719 175.722656 C 95.597656 178.660156 97.757812 181.207031 100.746094 181.582031 " fill-opacity="1" fill-rule="nonzero"/></g><path fill="#fc486b" d="M 117.917969 172.585938 C 115.660156 167.367188 118.0625 161.304688 123.28125 159.046875 C 128.503906 156.789062 134.566406 159.191406 136.824219 164.414062 C 139.082031 169.632812 136.679688 175.695312 131.457031 177.953125 C 126.238281 180.210938 120.175781 177.808594 117.917969 172.585938 " fill-opacity="1" fill-rule="nonzero"/><path fill="#f6ce17" d="M 180.808594 114.695312 C 182.125 111.886719 180.851562 108.527344 178.140625 107.023438 L 144.550781 88.347656 L 174.0625 63.730469 C 176.445312 61.742188 177.070312 58.207031 175.25 55.695312 C 173.484375 53.257812 170.210938 52.585938 167.652344 54.035156 L 111.269531 86.007812 C 106.78125 88.550781 107.410156 95.203125 112.292969 96.863281 L 173.65625 117.742188 C 176.4375 118.691406 179.527344 117.417969 180.808594 114.695312 " fill-opacity="1" fill-rule="nonzero"/><path fill="#f6ce17" d="M 177.558594 95.582031 C 171.894531 96.117188 166.871094 91.957031 166.339844 86.296875 C 165.804688 80.632812 169.964844 75.609375 175.625 75.074219 C 181.289062 74.542969 186.3125 78.699219 186.847656 84.363281 C 187.378906 90.027344 183.222656 95.050781 177.558594 95.582031 " fill-opacity="1" fill-rule="nonzero"/><g fill="#000000" fill-opacity="1"><g transform="translate(204.279399, 94.432843)"><g><path d="M 38.984375 1.078125 C 34.097656 1.078125 29.507812 0.472656 25.21875 -0.734375 C 20.9375 -1.941406 17.164062 -3.738281 13.90625 -6.125 C 10.644531 -8.507812 8.085938 -11.4375 6.234375 -14.90625 C 4.390625 -18.375 3.46875 -22.367188 3.46875 -26.890625 C 3.46875 -31.398438 4.378906 -35.398438 6.203125 -38.890625 C 8.023438 -42.390625 10.539062 -45.332031 13.75 -47.71875 C 16.957031 -50.101562 20.691406 -51.910156 24.953125 -53.140625 C 29.222656 -54.378906 33.820312 -55 38.75 -55 C 43.164062 -55 47.335938 -54.5625 51.265625 -53.6875 C 55.191406 -52.8125 58.488281 -51.679688 61.15625 -50.296875 L 60.15625 -38.75 C 58 -40.394531 55.160156 -41.769531 51.640625 -42.875 C 48.128906 -43.976562 44.316406 -44.53125 40.203125 -44.53125 C 35.585938 -44.53125 31.414062 -43.820312 27.6875 -42.40625 C 23.96875 -40.988281 21.015625 -38.972656 18.828125 -36.359375 C 16.648438 -33.742188 15.5625 -30.585938 15.5625 -26.890625 C 15.5625 -23.140625 16.691406 -19.96875 18.953125 -17.375 C 21.210938 -14.78125 24.265625 -12.800781 28.109375 -11.4375 C 31.960938 -10.070312 36.304688 -9.390625 41.140625 -9.390625 C 45.453125 -9.390625 49.570312 -9.976562 53.5 -11.15625 C 57.425781 -12.34375 60.695312 -13.960938 63.3125 -16.015625 L 63.3125 -3.625 C 60.1875 -2.1875 56.566406 -1.039062 52.453125 -0.1875 C 48.347656 0.65625 43.859375 1.078125 38.984375 1.078125 Z M 38.984375 1.078125 "/></g></g></g><g fill="#000000" fill-opacity="1"><g transform="translate(288.918802, 94.432843)"><g><path d="M 36.828125 1.078125 C 30.398438 1.078125 24.671875 -0.0351562 19.640625 -2.265625 C 14.609375 -4.503906 10.65625 -7.710938 7.78125 -11.890625 C 4.90625 -16.078125 3.46875 -21.097656 3.46875 -26.953125 C 3.46875 -32.816406 4.90625 -37.835938 7.78125 -42.015625 C 10.65625 -46.203125 14.609375 -49.410156 19.640625 -51.640625 C 24.671875 -53.878906 30.398438 -55 36.828125 -55 C 43.242188 -55 48.96875 -53.878906 54 -51.640625 C 59.03125 -49.410156 62.984375 -46.203125 65.859375 -42.015625 C 68.734375 -37.835938 70.171875 -32.816406 70.171875 -26.953125 C 70.171875 -21.097656 68.734375 -16.078125 65.859375 -11.890625 C 62.984375 -7.710938 59.03125 -4.503906 54 -2.265625 C 48.96875 -0.0351562 43.242188 1.078125 36.828125 1.078125 Z M 36.828125 -8.46875 C 40.878906 -8.46875 44.492188 -9.210938 47.671875 -10.703125 C 50.859375 -12.191406 53.375 -14.320312 55.21875 -17.09375 C 57.070312 -19.875 58 -23.160156 58 -26.953125 C 58 -30.804688 57.070312 -34.109375 55.21875 -36.859375 C 53.375 -39.609375 50.859375 -41.726562 47.671875 -43.21875 C 44.492188 -44.707031 40.878906 -45.453125 36.828125 -45.453125 C 32.816406 -45.453125 29.207031 -44.707031 26 -43.21875 C 22.789062 -41.726562 20.257812 -39.609375 18.40625 -36.859375 C 16.5625 -34.109375 15.640625 -30.804688 15.640625 -26.953125 C 15.640625 -23.160156 16.5625 -19.875 18.40625 -17.09375 C 20.257812 -14.320312 22.789062 -12.191406 26 -10.703125 C 29.207031 -9.210938 32.816406 -8.46875 36.828125 -8.46875 Z M 36.828125 -8.46875 "/></g></g></g><g fill="#000000" fill-opacity="1"><g transform="translate(381.335651, 94.432843)"><g><path d="M 6.234375 0 C 7.210938 -3.1875 7.703125 -7.5 7.703125 -12.9375 L 7.703125 -40.984375 C 7.703125 -43.597656 7.5625 -46.035156 7.28125 -48.296875 C 7 -50.554688 6.648438 -52.429688 6.234375 -53.921875 L 37.359375 -53.921875 C 43.671875 -53.921875 49.175781 -52.84375 53.875 -50.6875 C 58.582031 -48.53125 62.234375 -45.4375 64.828125 -41.40625 C 67.421875 -37.375 68.71875 -32.554688 68.71875 -26.953125 C 68.71875 -21.359375 67.421875 -16.546875 64.828125 -12.515625 C 62.234375 -8.484375 58.582031 -5.390625 53.875 -3.234375 C 49.175781 -1.078125 43.671875 0 37.359375 0 Z M 19.640625 -10.546875 L 36.515625 -10.546875 C 40.410156 -10.546875 43.847656 -11.203125 46.828125 -12.515625 C 49.804688 -13.828125 52.144531 -15.703125 53.84375 -18.140625 C 55.539062 -20.578125 56.390625 -23.515625 56.390625 -26.953125 C 56.390625 -30.398438 55.539062 -33.351562 53.84375 -35.8125 C 52.144531 -38.28125 49.804688 -40.171875 46.828125 -41.484375 C 43.847656 -42.796875 40.410156 -43.453125 36.515625 -43.453125 L 19.640625 -43.453125 Z M 19.640625 -10.546875 "/></g></g></g><g fill="#000000" fill-opacity="1"><g transform="translate(472.289419, 94.432843)"><g><path d="M 6.234375 0 C 7.210938 -3.1875 7.703125 -7.5 7.703125 -12.9375 L 7.703125 -40.984375 C 7.703125 -43.597656 7.5625 -46.035156 7.28125 -48.296875 C 7 -50.554688 6.648438 -52.429688 6.234375 -53.921875 L 59 -53.921875 L 60.9375 -42.296875 C 60.0625 -42.703125 58.765625 -43.03125 57.046875 -43.28125 C 55.328125 -43.539062 53.128906 -43.671875 50.453125 -43.671875 L 19.640625 -43.671875 L 19.640625 -32.046875 L 44.453125 -32.046875 C 47.992188 -32.046875 50.6875 -32.195312 52.53125 -32.5 L 52.53125 -21.5625 C 50.6875 -21.875 47.992188 -22.03125 44.453125 -22.03125 L 19.640625 -22.03125 L 19.640625 -10.25 L 51 -10.25 C 54.03125 -10.25 56.46875 -10.425781 58.3125 -10.78125 C 60.15625 -11.144531 61.644531 -11.632812 62.78125 -12.25 L 60.546875 0 Z M 6.234375 0 "/></g></g></g><g fill="#000000" fill-opacity="1"><g transform="translate(557.159846, 94.432843)"><g><path d="M 6.234375 0 C 6.648438 -1.488281 7 -3.363281 7.28125 -5.625 C 7.5625 -7.882812 7.703125 -10.320312 7.703125 -12.9375 L 7.703125 -40.984375 C 7.703125 -46.421875 7.210938 -50.734375 6.234375 -53.921875 L 20.1875 -53.921875 L 56 -16.09375 L 57 -16.09375 L 57 -41.21875 C 57 -43.882812 56.859375 -46.359375 56.578125 -48.640625 C 56.296875 -50.929688 55.972656 -52.691406 55.609375 -53.921875 L 70.40625 -53.921875 C 70 -52.429688 69.664062 -50.554688 69.40625 -48.296875 C 69.144531 -46.035156 69.015625 -43.597656 69.015625 -40.984375 L 69.015625 0 L 58 0 L 20.5625 -39.0625 L 19.640625 -39.0625 L 19.640625 -13.78125 C 19.640625 -11.113281 19.78125 -8.484375 20.0625 -5.890625 C 20.34375 -3.296875 20.664062 -1.332031 21.03125 0 Z M 6.234375 0 "/></g></g></g><g fill="#000000" fill-opacity="1"><g transform="translate(652.579834, 94.432843)"><g><path d="M 6.234375 0 C 7.210938 -3.1875 7.703125 -7.5 7.703125 -12.9375 L 7.703125 -40.984375 C 7.703125 -43.597656 7.5625 -46.035156 7.28125 -48.296875 C 7 -50.554688 6.648438 -52.429688 6.234375 -53.921875 L 59 -53.921875 L 60.9375 -42.296875 C 60.0625 -42.703125 58.765625 -43.03125 57.046875 -43.28125 C 55.328125 -43.539062 53.128906 -43.671875 50.453125 -43.671875 L 19.640625 -43.671875 L 19.640625 -32.046875 L 44.453125 -32.046875 C 47.992188 -32.046875 50.6875 -32.195312 52.53125 -32.5 L 52.53125 -21.5625 C 50.6875 -21.875 47.992188 -22.03125 44.453125 -22.03125 L 19.640625 -22.03125 L 19.640625 -10.25 L 51 -10.25 C 54.03125 -10.25 56.46875 -10.425781 58.3125 -10.78125 C 60.15625 -11.144531 61.644531 -11.632812 62.78125 -12.25 L 60.546875 0 Z M 6.234375 0 "/></g></g></g><g fill="#000000" fill-opacity="1"><g transform="translate(737.450261, 94.432843)"><g><path d="M 24.109375 0 C 24.523438 -1.539062 24.859375 -3.425781 25.109375 -5.65625 C 25.367188 -7.894531 25.5 -10.320312 25.5 -12.9375 L 25.5 -43.453125 L 12.09375 -43.453125 C 9.570312 -43.453125 7.53125 -43.347656 5.96875 -43.140625 C 4.40625 -42.929688 2.957031 -42.597656 1.625 -42.140625 L 4 -53.921875 L 58.921875 -53.921875 L 61.3125 -42.140625 C 60.03125 -42.546875 58.59375 -42.863281 57 -43.09375 C 55.40625 -43.332031 53.351562 -43.453125 50.84375 -43.453125 L 37.515625 -43.453125 L 37.515625 -12.9375 C 37.515625 -10.320312 37.628906 -7.894531 37.859375 -5.65625 C 38.085938 -3.425781 38.4375 -1.539062 38.90625 0 Z M 24.109375 0 "/></g></g></g><g fill="#000000" fill-opacity="1"><g transform="translate(233.576657, 144.154335)"><g><path d="M 17.96875 0.4375 C 16.84375 0.4375 15.804688 0.363281 14.859375 0.21875 C 13.910156 0.0703125 12.957031 -0.0664062 12 -0.203125 C 11.050781 -0.335938 9.96875 -0.40625 8.75 -0.40625 C 7.382812 -0.40625 6.15625 -0.3125 5.0625 -0.125 C 3.96875 0.0507812 3.078125 0.238281 2.390625 0.4375 C 2.566406 -0.144531 2.703125 -0.9375 2.796875 -1.9375 C 2.898438 -2.945312 2.953125 -3.957031 2.953125 -4.96875 L 2.953125 -15.71875 C 2.953125 -16.71875 2.894531 -17.648438 2.78125 -18.515625 C 2.675781 -19.390625 2.546875 -20.113281 2.390625 -20.6875 L 8.0625 -20.6875 C 7.925781 -20.113281 7.800781 -19.3125 7.6875 -18.28125 C 7.582031 -17.257812 7.53125 -16.25 7.53125 -15.25 L 7.53125 -3.90625 L 16.546875 -3.90625 C 17.828125 -3.90625 19.015625 -3.984375 20.109375 -4.140625 C 21.203125 -4.296875 22.050781 -4.5 22.65625 -4.75 L 22.390625 -0.203125 C 22.015625 -0.128906 21.414062 -0.00390625 20.59375 0.171875 C 19.769531 0.347656 18.894531 0.4375 17.96875 0.4375 Z M 17.96875 0.4375 "/></g></g></g><g fill="#000000" fill-opacity="1"><g transform="translate(264.273321, 144.154335)"><g><path d="M 2.390625 0 C 2.765625 -1.21875 2.953125 -2.875 2.953125 -4.96875 L 2.953125 -15.71875 C 2.953125 -16.71875 2.894531 -17.648438 2.78125 -18.515625 C 2.675781 -19.390625 2.546875 -20.113281 2.390625 -20.6875 L 22.640625 -20.6875 L 23.375 -16.21875 C 23.039062 -16.375 22.539062 -16.5 21.875 -16.59375 C 21.21875 -16.695312 20.378906 -16.75 19.359375 -16.75 L 7.53125 -16.75 L 7.53125 -12.296875 L 17.046875 -12.296875 C 18.410156 -12.296875 19.445312 -12.351562 20.15625 -12.46875 L 20.15625 -8.265625 C 19.445312 -8.390625 18.410156 -8.453125 17.046875 -8.453125 L 7.53125 -8.453125 L 7.53125 -3.9375 L 19.5625 -3.9375 C 20.71875 -3.9375 21.648438 -4.003906 22.359375 -4.140625 C 23.078125 -4.273438 23.648438 -4.460938 24.078125 -4.703125 L 23.21875 0 Z M 2.390625 0 "/></g></g></g><g fill="#000000" fill-opacity="1"><g transform="translate(296.831266, 144.154335)"><g><path d="M -0.359375 0 C 0.0351562 -0.570312 0.503906 -1.304688 1.046875 -2.203125 C 1.585938 -3.097656 2.101562 -4.019531 2.59375 -4.96875 L 8.21875 -15.71875 C 8.707031 -16.707031 9.082031 -17.640625 9.34375 -18.515625 C 9.613281 -19.390625 9.796875 -20.113281 9.890625 -20.6875 L 17.140625 -20.6875 C 17.273438 -20.007812 17.472656 -19.21875 17.734375 -18.3125 C 18.003906 -17.40625 18.335938 -16.550781 18.734375 -15.75 L 24.40625 -4.96875 C 24.894531 -4 25.40625 -3.070312 25.9375 -2.1875 C 26.46875 -1.300781 26.929688 -0.570312 27.328125 0 L 21.546875 0 C 21.484375 -0.394531 21.351562 -0.847656 21.15625 -1.359375 C 20.957031 -1.867188 20.640625 -2.507812 20.203125 -3.28125 L 19.359375 -4.84375 L 7.625 -4.84375 L 6.765625 -3.25 C 6.410156 -2.5 6.113281 -1.867188 5.875 -1.359375 C 5.644531 -0.847656 5.5 -0.394531 5.4375 0 Z M 9.34375 -8.359375 L 17.640625 -8.359375 L 14.890625 -13.65625 C 14.628906 -14.207031 14.398438 -14.742188 14.203125 -15.265625 C 14.015625 -15.785156 13.820312 -16.332031 13.625 -16.90625 L 13.359375 -16.90625 C 13.160156 -16.3125 12.960938 -15.757812 12.765625 -15.25 C 12.566406 -14.738281 12.332031 -14.195312 12.0625 -13.625 Z M 9.34375 -8.359375 "/></g></g></g><g fill="#000000" fill-opacity="1"><g transform="translate(331.01415, 144.154335)"><g><path d="M 23.75 0.4375 C 22.644531 0.4375 21.753906 0.285156 21.078125 -0.015625 C 20.398438 -0.316406 19.847656 -0.722656 19.421875 -1.234375 C 19.003906 -1.753906 18.640625 -2.316406 18.328125 -2.921875 C 18.023438 -3.535156 17.71875 -4.140625 17.40625 -4.734375 C 17.101562 -5.335938 16.71875 -5.894531 16.25 -6.40625 C 15.78125 -6.925781 15.164062 -7.335938 14.40625 -7.640625 C 13.644531 -7.941406 12.65625 -8.09375 11.4375 -8.09375 C 11.15625 -8.09375 10.75 -8.082031 10.21875 -8.0625 C 9.6875 -8.039062 9.171875 -8.015625 8.671875 -7.984375 C 8.171875 -7.960938 7.800781 -7.910156 7.5625 -7.828125 L 7.5625 -4.75 C 7.5625 -2.757812 7.738281 -1.175781 8.09375 0 L 2.421875 0 C 2.578125 -0.59375 2.703125 -1.316406 2.796875 -2.171875 C 2.898438 -3.023438 2.953125 -3.957031 2.953125 -4.96875 L 2.953125 -15.71875 C 2.953125 -16.71875 2.898438 -17.648438 2.796875 -18.515625 C 2.703125 -19.390625 2.578125 -20.113281 2.421875 -20.6875 L 16.71875 -20.6875 C 18.375 -20.6875 19.832031 -20.476562 21.09375 -20.0625 C 22.351562 -19.644531 23.335938 -19.03125 24.046875 -18.21875 C 24.753906 -17.414062 25.109375 -16.4375 25.109375 -15.28125 C 25.109375 -14.175781 24.773438 -13.191406 24.109375 -12.328125 C 23.441406 -11.472656 22.507812 -10.804688 21.3125 -10.328125 C 20.125 -9.847656 18.734375 -9.609375 17.140625 -9.609375 L 15.328125 -9.609375 L 15.328125 -9.359375 L 15.578125 -9.359375 C 16.617188 -9.359375 17.484375 -9.226562 18.171875 -8.96875 C 18.859375 -8.71875 19.425781 -8.394531 19.875 -8 C 20.332031 -7.613281 20.722656 -7.195312 21.046875 -6.75 C 21.378906 -6.3125 21.691406 -5.894531 21.984375 -5.5 C 22.273438 -5.101562 22.601562 -4.773438 22.96875 -4.515625 C 23.332031 -4.265625 23.78125 -4.140625 24.3125 -4.140625 C 25.125 -4.140625 25.734375 -4.328125 26.140625 -4.703125 C 26.554688 -5.078125 26.894531 -5.578125 27.15625 -6.203125 L 27.359375 -1.09375 C 27.023438 -0.632812 26.523438 -0.265625 25.859375 0.015625 C 25.203125 0.296875 24.5 0.4375 23.75 0.4375 Z M 7.5625 -11.375 L 16.046875 -11.375 C 17.398438 -11.375 18.476562 -11.601562 19.28125 -12.0625 C 20.09375 -12.53125 20.5 -13.1875 20.5 -14.03125 C 20.5 -14.863281 20.109375 -15.515625 19.328125 -15.984375 C 18.554688 -16.453125 17.53125 -16.6875 16.25 -16.6875 L 7.5625 -16.6875 Z M 7.5625 -11.375 "/></g></g></g><g fill="#000000" fill-opacity="1"><g transform="translate(365.90613, 144.154335)"><g><path d="M 2.390625 0 C 2.546875 -0.570312 2.675781 -1.289062 2.78125 -2.15625 C 2.894531 -3.019531 2.953125 -3.957031 2.953125 -4.96875 L 2.953125 -15.71875 C 2.953125 -17.800781 2.765625 -19.457031 2.390625 -20.6875 L 7.734375 -20.6875 L 21.484375 -6.171875 L 21.859375 -6.171875 L 21.859375 -15.8125 C 21.859375 -16.832031 21.804688 -17.78125 21.703125 -18.65625 C 21.597656 -19.53125 21.472656 -20.207031 21.328125 -20.6875 L 27 -20.6875 C 26.84375 -20.113281 26.710938 -19.390625 26.609375 -18.515625 C 26.515625 -17.648438 26.46875 -16.71875 26.46875 -15.71875 L 26.46875 0 L 22.25 0 L 7.890625 -14.984375 L 7.53125 -14.984375 L 7.53125 -5.28125 C 7.53125 -4.257812 7.582031 -3.25 7.6875 -2.25 C 7.800781 -1.257812 7.925781 -0.507812 8.0625 0 Z M 2.390625 0 "/></g></g></g><g fill="#000000" fill-opacity="1"><g transform="translate(402.511675, 144.154335)"><g><path d="M 2.390625 0 C 2.566406 -0.570312 2.695312 -1.289062 2.78125 -2.15625 C 2.875 -3.019531 2.921875 -3.957031 2.921875 -4.96875 L 2.921875 -15.71875 C 2.921875 -16.71875 2.867188 -17.648438 2.765625 -18.515625 C 2.671875 -19.390625 2.546875 -20.113281 2.390625 -20.6875 L 8.0625 -20.6875 C 7.90625 -20.113281 7.773438 -19.390625 7.671875 -18.515625 C 7.578125 -17.648438 7.53125 -16.71875 7.53125 -15.71875 L 7.53125 -4.96875 C 7.53125 -3.957031 7.578125 -3.019531 7.671875 -2.15625 C 7.773438 -1.289062 7.90625 -0.570312 8.0625 0 Z M 2.390625 0 "/></g></g></g><g fill="#000000" fill-opacity="1"><g transform="translate(420.208756, 144.154335)"><g><path d="M 2.390625 0 C 2.546875 -0.570312 2.675781 -1.289062 2.78125 -2.15625 C 2.894531 -3.019531 2.953125 -3.957031 2.953125 -4.96875 L 2.953125 -15.71875 C 2.953125 -17.800781 2.765625 -19.457031 2.390625 -20.6875 L 7.734375 -20.6875 L 21.484375 -6.171875 L 21.859375 -6.171875 L 21.859375 -15.8125 C 21.859375 -16.832031 21.804688 -17.78125 21.703125 -18.65625 C 21.597656 -19.53125 21.472656 -20.207031 21.328125 -20.6875 L 27 -20.6875 C 26.84375 -20.113281 26.710938 -19.390625 26.609375 -18.515625 C 26.515625 -17.648438 26.46875 -16.71875 26.46875 -15.71875 L 26.46875 0 L 22.25 0 L 7.890625 -14.984375 L 7.53125 -14.984375 L 7.53125 -5.28125 C 7.53125 -4.257812 7.582031 -3.25 7.6875 -2.25 C 7.800781 -1.257812 7.925781 -0.507812 8.0625 0 Z M 2.390625 0 "/></g></g></g><g fill="#000000" fill-opacity="1"><g transform="translate(456.814301, 144.154335)"><g><path d="M 14.53125 0.40625 C 11.9375 0.40625 9.644531 -0.03125 7.65625 -0.90625 C 5.664062 -1.78125 4.113281 -3.015625 3 -4.609375 C 1.882812 -6.203125 1.328125 -8.09375 1.328125 -10.28125 C 1.328125 -12.488281 1.894531 -14.398438 3.03125 -16.015625 C 4.164062 -17.628906 5.726562 -18.878906 7.71875 -19.765625 C 9.71875 -20.648438 12.007812 -21.09375 14.59375 -21.09375 C 16.3125 -21.09375 17.90625 -20.945312 19.375 -20.65625 C 20.851562 -20.375 22.195312 -20.007812 23.40625 -19.5625 L 23.171875 -15.390625 C 22.535156 -15.785156 21.78125 -16.109375 20.90625 -16.359375 C 20.03125 -16.617188 19.085938 -16.816406 18.078125 -16.953125 C 17.078125 -17.097656 16.082031 -17.171875 15.09375 -17.171875 C 13.300781 -17.171875 11.710938 -16.894531 10.328125 -16.34375 C 8.941406 -15.789062 7.851562 -14.992188 7.0625 -13.953125 C 6.269531 -12.921875 5.875 -11.695312 5.875 -10.28125 C 5.875 -8.90625 6.242188 -7.707031 6.984375 -6.6875 C 7.722656 -5.675781 8.753906 -4.898438 10.078125 -4.359375 C 11.398438 -3.816406 12.925781 -3.546875 14.65625 -3.546875 C 16 -3.546875 17.285156 -3.75 18.515625 -4.15625 C 19.742188 -4.570312 20.703125 -5.144531 21.390625 -5.875 L 21.390625 -8.359375 L 16.40625 -8.359375 C 15.96875 -8.359375 15.472656 -8.332031 14.921875 -8.28125 C 14.367188 -8.238281 13.957031 -8.164062 13.6875 -8.0625 L 13.890625 -12.078125 L 25.765625 -12.078125 L 25.765625 -3.578125 C 24.640625 -2.367188 23.085938 -1.398438 21.109375 -0.671875 C 19.128906 0.046875 16.9375 0.40625 14.53125 0.40625 Z M 14.53125 0.40625 "/></g></g></g><g fill="#000000" fill-opacity="1"><g transform="translate(491.233569, 144.154335)"><g/></g></g><g fill="#000000" fill-opacity="1"><g transform="translate(506.744374, 144.154335)"><g><path d="M 2.390625 0 C 2.765625 -1.21875 2.953125 -2.875 2.953125 -4.96875 L 2.953125 -15.71875 C 2.953125 -16.71875 2.894531 -17.648438 2.78125 -18.515625 C 2.675781 -19.390625 2.546875 -20.113281 2.390625 -20.6875 L 22.640625 -20.6875 L 23.375 -16.21875 C 23.039062 -16.375 22.539062 -16.5 21.875 -16.59375 C 21.21875 -16.695312 20.378906 -16.75 19.359375 -16.75 L 7.53125 -16.75 L 7.53125 -12.296875 L 17.046875 -12.296875 C 18.410156 -12.296875 19.445312 -12.351562 20.15625 -12.46875 L 20.15625 -8.265625 C 19.445312 -8.390625 18.410156 -8.453125 17.046875 -8.453125 L 7.53125 -8.453125 L 7.53125 -3.9375 L 19.5625 -3.9375 C 20.71875 -3.9375 21.648438 -4.003906 22.359375 -4.140625 C 23.078125 -4.273438 23.648438 -4.460938 24.078125 -4.703125 L 23.21875 0 Z M 2.390625 0 "/></g></g></g><g fill="#000000" fill-opacity="1"><g transform="translate(539.302323, 144.154335)"><g><path d="M 0.09375 0 C 0.582031 -0.445312 1.132812 -1.015625 1.75 -1.703125 C 2.375 -2.398438 3.039062 -3.171875 3.75 -4.015625 L 9.890625 -10.640625 L 4.21875 -16.6875 C 3.53125 -17.539062 2.890625 -18.300781 2.296875 -18.96875 C 1.710938 -19.632812 1.15625 -20.207031 0.625 -20.6875 L 6.890625 -20.6875 C 7.085938 -20.289062 7.351562 -19.835938 7.6875 -19.328125 C 8.019531 -18.828125 8.488281 -18.207031 9.09375 -17.46875 L 13 -13.203125 L 13.265625 -13.203125 L 17.171875 -17.484375 C 17.773438 -18.210938 18.25 -18.828125 18.59375 -19.328125 C 18.9375 -19.835938 19.21875 -20.289062 19.4375 -20.6875 L 25.640625 -20.6875 C 25.085938 -20.207031 24.515625 -19.632812 23.921875 -18.96875 C 23.335938 -18.300781 22.703125 -17.539062 22.015625 -16.6875 L 16.375 -10.640625 L 22.546875 -4.015625 C 23.253906 -3.171875 23.914062 -2.398438 24.53125 -1.703125 C 25.15625 -1.015625 25.710938 -0.445312 26.203125 0 L 19.921875 0 C 19.703125 -0.4375 19.421875 -0.914062 19.078125 -1.4375 C 18.734375 -1.957031 18.253906 -2.59375 17.640625 -3.34375 L 13.265625 -8.09375 L 13.03125 -8.09375 L 8.6875 -3.34375 C 8.070312 -2.59375 7.585938 -1.957031 7.234375 -1.4375 C 6.878906 -0.914062 6.578125 -0.4375 6.328125 0 Z M 0.09375 0 "/></g></g></g><g fill="#000000" fill-opacity="1"><g transform="translate(572.776168, 144.154335)"><g><path d="M 14.953125 0.40625 C 13.078125 0.40625 11.316406 0.175781 9.671875 -0.28125 C 8.023438 -0.738281 6.578125 -1.425781 5.328125 -2.34375 C 4.078125 -3.257812 3.097656 -4.382812 2.390625 -5.71875 C 1.679688 -7.050781 1.328125 -8.582031 1.328125 -10.3125 C 1.328125 -12.039062 1.675781 -13.578125 2.375 -14.921875 C 3.070312 -16.265625 4.035156 -17.390625 5.265625 -18.296875 C 6.503906 -19.210938 7.941406 -19.90625 9.578125 -20.375 C 11.210938 -20.851562 12.972656 -21.09375 14.859375 -21.09375 C 16.554688 -21.09375 18.15625 -20.925781 19.65625 -20.59375 C 21.164062 -20.257812 22.429688 -19.828125 23.453125 -19.296875 L 23.078125 -14.859375 C 22.242188 -15.492188 21.148438 -16.019531 19.796875 -16.4375 C 18.453125 -16.863281 16.992188 -17.078125 15.421875 -17.078125 C 13.648438 -17.078125 12.050781 -16.804688 10.625 -16.265625 C 9.195312 -15.722656 8.0625 -14.945312 7.21875 -13.9375 C 6.382812 -12.9375 5.96875 -11.726562 5.96875 -10.3125 C 5.96875 -8.875 6.398438 -7.65625 7.265625 -6.65625 C 8.128906 -5.664062 9.300781 -4.910156 10.78125 -4.390625 C 12.257812 -3.867188 13.925781 -3.609375 15.78125 -3.609375 C 17.4375 -3.609375 19.015625 -3.832031 20.515625 -4.28125 C 22.023438 -4.738281 23.28125 -5.359375 24.28125 -6.140625 L 24.28125 -1.390625 C 23.082031 -0.835938 21.691406 -0.398438 20.109375 -0.078125 C 18.535156 0.242188 16.816406 0.40625 14.953125 0.40625 Z M 14.953125 0.40625 "/></g></g></g><g fill="#000000" fill-opacity="1"><g transform="translate(605.245478, 144.154335)"><g><path d="M 2.390625 0 C 2.765625 -1.21875 2.953125 -2.875 2.953125 -4.96875 L 2.953125 -15.71875 C 2.953125 -16.71875 2.894531 -17.648438 2.78125 -18.515625 C 2.675781 -19.390625 2.546875 -20.113281 2.390625 -20.6875 L 8.0625 -20.6875 C 7.90625 -20.070312 7.773438 -19.363281 7.671875 -18.5625 C 7.578125 -17.769531 7.53125 -16.878906 7.53125 -15.890625 L 7.53125 -12.296875 L 20.453125 -12.296875 L 20.453125 -15.890625 C 20.453125 -16.898438 20.398438 -17.804688 20.296875 -18.609375 C 20.203125 -19.421875 20.078125 -20.113281 19.921875 -20.6875 L 25.59375 -20.6875 C 25.425781 -20.113281 25.296875 -19.390625 25.203125 -18.515625 C 25.109375 -17.648438 25.0625 -16.71875 25.0625 -15.71875 L 25.0625 -4.96875 C 25.0625 -3.957031 25.101562 -3.019531 25.1875 -2.15625 C 25.28125 -1.289062 25.414062 -0.570312 25.59375 0 L 19.921875 0 C 20.078125 -0.570312 20.203125 -1.257812 20.296875 -2.0625 C 20.398438 -2.875 20.453125 -3.78125 20.453125 -4.78125 L 20.453125 -8.453125 L 7.53125 -8.453125 L 7.53125 -4.78125 C 7.53125 -3.820312 7.566406 -2.941406 7.640625 -2.140625 C 7.722656 -1.347656 7.863281 -0.632812 8.0625 0 Z M 2.390625 0 "/></g></g></g><g fill="#000000" fill-opacity="1"><g transform="translate(640.432869, 144.154335)"><g><path d="M -0.359375 0 C 0.0351562 -0.570312 0.503906 -1.304688 1.046875 -2.203125 C 1.585938 -3.097656 2.101562 -4.019531 2.59375 -4.96875 L 8.21875 -15.71875 C 8.707031 -16.707031 9.082031 -17.640625 9.34375 -18.515625 C 9.613281 -19.390625 9.796875 -20.113281 9.890625 -20.6875 L 17.140625 -20.6875 C 17.273438 -20.007812 17.472656 -19.21875 17.734375 -18.3125 C 18.003906 -17.40625 18.335938 -16.550781 18.734375 -15.75 L 24.40625 -4.96875 C 24.894531 -4 25.40625 -3.070312 25.9375 -2.1875 C 26.46875 -1.300781 26.929688 -0.570312 27.328125 0 L 21.546875 0 C 21.484375 -0.394531 21.351562 -0.847656 21.15625 -1.359375 C 20.957031 -1.867188 20.640625 -2.507812 20.203125 -3.28125 L 19.359375 -4.84375 L 7.625 -4.84375 L 6.765625 -3.25 C 6.410156 -2.5 6.113281 -1.867188 5.875 -1.359375 C 5.644531 -0.847656 5.5 -0.394531 5.4375 0 Z M 9.34375 -8.359375 L 17.640625 -8.359375 L 14.890625 -13.65625 C 14.628906 -14.207031 14.398438 -14.742188 14.203125 -15.265625 C 14.015625 -15.785156 13.820312 -16.332031 13.625 -16.90625 L 13.359375 -16.90625 C 13.160156 -16.3125 12.960938 -15.757812 12.765625 -15.25 C 12.566406 -14.738281 12.332031 -14.195312 12.0625 -13.625 Z M 9.34375 -8.359375 "/></g></g></g><g fill="#000000" fill-opacity="1"><g transform="translate(674.615744, 144.154335)"><g><path d="M 2.390625 0 C 2.546875 -0.570312 2.675781 -1.289062 2.78125 -2.15625 C 2.894531 -3.019531 2.953125 -3.957031 2.953125 -4.96875 L 2.953125 -15.71875 C 2.953125 -17.800781 2.765625 -19.457031 2.390625 -20.6875 L 7.734375 -20.6875 L 21.484375 -6.171875 L 21.859375 -6.171875 L 21.859375 -15.8125 C 21.859375 -16.832031 21.804688 -17.78125 21.703125 -18.65625 C 21.597656 -19.53125 21.472656 -20.207031 21.328125 -20.6875 L 27 -20.6875 C 26.84375 -20.113281 26.710938 -19.390625 26.609375 -18.515625 C 26.515625 -17.648438 26.46875 -16.71875 26.46875 -15.71875 L 26.46875 0 L 22.25 0 L 7.890625 -14.984375 L 7.53125 -14.984375 L 7.53125 -5.28125 C 7.53125 -4.257812 7.582031 -3.25 7.6875 -2.25 C 7.800781 -1.257812 7.925781 -0.507812 8.0625 0 Z M 2.390625 0 "/></g></g></g><g fill="#000000" fill-opacity="1"><g transform="translate(711.22127, 144.154335)"><g><path d="M 14.53125 0.40625 C 11.9375 0.40625 9.644531 -0.03125 7.65625 -0.90625 C 5.664062 -1.78125 4.113281 -3.015625 3 -4.609375 C 1.882812 -6.203125 1.328125 -8.09375 1.328125 -10.28125 C 1.328125 -12.488281 1.894531 -14.398438 3.03125 -16.015625 C 4.164062 -17.628906 5.726562 -18.878906 7.71875 -19.765625 C 9.71875 -20.648438 12.007812 -21.09375 14.59375 -21.09375 C 16.3125 -21.09375 17.90625 -20.945312 19.375 -20.65625 C 20.851562 -20.375 22.195312 -20.007812 23.40625 -19.5625 L 23.171875 -15.390625 C 22.535156 -15.785156 21.78125 -16.109375 20.90625 -16.359375 C 20.03125 -16.617188 19.085938 -16.816406 18.078125 -16.953125 C 17.078125 -17.097656 16.082031 -17.171875 15.09375 -17.171875 C 13.300781 -17.171875 11.710938 -16.894531 10.328125 -16.34375 C 8.941406 -15.789062 7.851562 -14.992188 7.0625 -13.953125 C 6.269531 -12.921875 5.875 -11.695312 5.875 -10.28125 C 5.875 -8.90625 6.242188 -7.707031 6.984375 -6.6875 C 7.722656 -5.675781 8.753906 -4.898438 10.078125 -4.359375 C 11.398438 -3.816406 12.925781 -3.546875 14.65625 -3.546875 C 16 -3.546875 17.285156 -3.75 18.515625 -4.15625 C 19.742188 -4.570312 20.703125 -5.144531 21.390625 -5.875 L 21.390625 -8.359375 L 16.40625 -8.359375 C 15.96875 -8.359375 15.472656 -8.332031 14.921875 -8.28125 C 14.367188 -8.238281 13.957031 -8.164062 13.6875 -8.0625 L 13.890625 -12.078125 L 25.765625 -12.078125 L 25.765625 -3.578125 C 24.640625 -2.367188 23.085938 -1.398438 21.109375 -0.671875 C 19.128906 0.046875 16.9375 0.40625 14.53125 0.40625 Z M 14.53125 0.40625 "/></g></g></g><g fill="#000000" fill-opacity="1"><g transform="translate(745.64052, 144.154335)"><g><path d="M 2.390625 0 C 2.765625 -1.21875 2.953125 -2.875 2.953125 -4.96875 L 2.953125 -15.71875 C 2.953125 -16.71875 2.894531 -17.648438 2.78125 -18.515625 C 2.675781 -19.390625 2.546875 -20.113281 2.390625 -20.6875 L 22.640625 -20.6875 L 23.375 -16.21875 C 23.039062 -16.375 22.539062 -16.5 21.875 -16.59375 C 21.21875 -16.695312 20.378906 -16.75 19.359375 -16.75 L 7.53125 -16.75 L 7.53125 -12.296875 L 17.046875 -12.296875 C 18.410156 -12.296875 19.445312 -12.351562 20.15625 -12.46875 L 20.15625 -8.265625 C 19.445312 -8.390625 18.410156 -8.453125 17.046875 -8.453125 L 7.53125 -8.453125 L 7.53125 -3.9375 L 19.5625 -3.9375 C 20.71875 -3.9375 21.648438 -4.003906 22.359375 -4.140625 C 23.078125 -4.273438 23.648438 -4.460938 24.078125 -4.703125 L 23.21875 0 Z M 2.390625 0 "/></g></g></g></svg>